<svg version="1.1" xmlns="http://www.w3.org/2000/svg" xmlns:xlink="http://www.w3.org/1999/xlink" width="90.08329" height="237.80173" viewBox="0,0,90.08329,237.80173"><g transform="translate(-192.7061,1.41931)"><g data-paper-data="{&quot;isPaintingLayer&quot;:true}" fill-rule="nonzero" stroke-linecap="butt" stroke-linejoin="miter" stroke-miterlimit="10" stroke-dasharray="" stroke-dashoffset="0" style="mix-blend-mode: normal"><g><path d="M195.42902,15.25859l48.55875,-16.45096l38.80162,18.26624v218.51437h-90.08329l2.72292,-220.32964" fill="#7aded4" stroke="none" stroke-width="1"/><path d="M243.4205,-1.4193l0.45381,237.80173h-51.1682v-221.91802c0,0 44.58783,-13.38768 50.7144,-15.88371z" fill="#e7f5f5" stroke="none" stroke-width="1"/><path d="M197.47122,21.83899l39.36889,-10.89169" fill="none" stroke="#7aded4" stroke-width="4.4846"/><path d="M197.47122,32.50376l39.36889,-11.00515" fill="none" stroke="#7aded4" stroke-width="4.4846"/><path d="M197.47122,43.16853l39.36889,-11.00515" fill="none" stroke="#7aded4" stroke-width="4.4846"/><path d="M197.47122,53.71984l39.36889,-11.00514" fill="none" stroke="#7aded4" stroke-width="4.4846"/><path d="M197.47122,64.3846l39.36889,-11.00513" fill="none" stroke="#7aded4" stroke-width="4.4846"/><path d="M197.47122,74.93593l39.36889,-11.00513" fill="none" stroke="#7aded4" stroke-width="4.4846"/><path d="M197.47122,85.6007l39.36889,-11.00513" fill="none" stroke="#7aded4" stroke-width="4.4846"/><path d="M236.84011,85.14687l-39.36889,11.00515" fill="none" stroke="#7aded4" stroke-width="4.4846"/><path d="M197.47122,106.81679l39.36889,-11.00515" fill="none" stroke="#7aded4" stroke-width="4.4846"/><path d="M236.84011,106.47641l-39.36889,10.89169" fill="none" stroke="#7aded4" stroke-width="4.4846"/><path d="M197.47122,128.03289l39.36889,-11.00513" fill="none" stroke="#7aded4" stroke-width="4.4846"/><path d="M236.84011,127.69252l-39.36889,10.89167" fill="none" stroke="#7aded4" stroke-width="4.4846"/><path d="M197.47122,149.24896l39.36889,-11.00514" fill="none" stroke="#7aded4" stroke-width="4.4846"/><path d="M197.47122,159.91373l39.36889,-11.00513" fill="none" stroke="#7aded4" stroke-width="4.4846"/><path d="M197.47122,170.46506l39.36889,-11.00516" fill="none" stroke="#7aded4" stroke-width="4.4846"/><path d="M197.47122,181.12983l39.36889,-11.00516" fill="none" stroke="#7aded4" stroke-width="4.4846"/><path d="M236.84011,180.676l-39.36889,11.00513" fill="none" stroke="#7aded4" stroke-width="4.4846"/><path d="M197.47122,202.3459l39.36889,-11.00513" fill="none" stroke="#7aded4" stroke-width="4.4846"/><path d="M197.47122,212.89723l39.36889,-11.00513" fill="none" stroke="#7aded4" stroke-width="4.4846"/><path d="M236.84011,212.55686l-39.36889,11.00513" fill="none" stroke="#7aded4" stroke-width="4.4846"/><path d="M197.47122,234.11332l39.36889,-10.89169" fill="none" stroke="#7aded4" stroke-width="4.4846"/></g></g></g></svg>