<svg version="1.1" xmlns="http://www.w3.org/2000/svg" xmlns:xlink="http://www.w3.org/1999/xlink" width="42.38098" height="42.35404" viewBox="0,0,42.38098,42.35404"><g transform="translate(-218.80951,-251.23447)"><g data-paper-data="{&quot;isPaintingLayer&quot;:true}" fill-rule="nonzero" stroke="none" stroke-width="0" stroke-linecap="butt" stroke-linejoin="miter" stroke-miterlimit="10" stroke-dasharray="" stroke-dashoffset="0" style="mix-blend-mode: normal"><g><path d="M218.83644,261.95769c0,-5.84788 4.74064,-10.58851 10.58851,-10.58851c5.84788,0 10.58851,4.74064 10.58851,10.58851c0,5.84788 -4.74064,10.58851 -10.58851,10.58851c-5.84788,0 -10.58851,-4.74064 -10.58851,-10.58851z" fill="#000000"/><path d="M240.01346,261.82298c0,-5.84788 4.74064,-10.58851 10.58851,-10.58851c5.84788,0 10.58851,4.74064 10.58851,10.58851c0,5.84788 -4.74064,10.58851 -10.58851,10.58851c-5.84788,0 -10.58851,-4.74064 -10.58851,-10.58851z" fill="#000000"/><path d="M218.80951,283c0,-5.84788 4.74064,-10.58851 10.58851,-10.58851c5.84788,0 10.58851,4.74064 10.58851,10.58851c0,5.84788 -4.74064,10.58851 -10.58851,10.58851c-5.84788,0 -10.58851,-4.74064 -10.58851,-10.58851z" fill="#000000"/><path d="M239.8518,282.79794c0,-5.88508 4.77079,-10.65587 10.65587,-10.65587c5.88508,0 10.65587,4.77079 10.65587,10.65587c0,5.88508 -4.77079,10.65587 -10.65587,10.65587c-5.88508,0 -10.65587,-4.77079 -10.65587,-10.65587z" fill="#000000"/><path d="M231.51881,282.24561v-21.662h29.67168v21.662z" fill="#000000"/><path d="M219.09775,284.02383v-22.7936h25.32582v22.7936z" fill="#000000"/><path d="M229.02082,279.70275v-28.33358h23.1169v28.33358z" fill="#000000"/><path d="M227.8892,293.53464v-22.04549h23.08997v22.04549z" fill="#000000"/><path d="M226.07885,272.41149c0,-7.68844 6.23271,-13.92115 13.92115,-13.92115c7.68844,0 13.92115,6.23271 13.92115,13.92115c0,7.68844 -6.23271,13.92115 -13.92115,13.92115c-7.68844,0 -13.92115,-6.23271 -13.92115,-13.92115z" fill="#ffffff"/><path d="M236.47149,271.98652c0,-4.54317 3.68297,-8.22614 8.22614,-8.22614c4.54317,0 8.22614,3.68297 8.22614,8.22614c0,4.54317 -3.68297,8.22614 -8.22614,8.22614c-4.54317,0 -8.22614,-3.68297 -8.22614,-8.22614z" fill="#000000"/><path d="M244.95718,271.73126c0,-1.95705 1.58651,-3.54357 3.54357,-3.54357c1.95705,0 3.54357,1.58651 3.54357,3.54357c0,1.95705 -1.58651,3.54357 -3.54357,3.54357c-1.95705,0 -3.54357,-1.58651 -3.54357,-3.54357z" fill="#ffffff"/></g></g></g></svg>